<svg xmlns="http://www.w3.org/2000/svg" xmlns:xlink="http://www.w3.org/1999/xlink" width="500" zoomAndPan="magnify" viewBox="0 0 375 374.999991" height="500" preserveAspectRatio="xMidYMid meet" version="1.0"><defs><g/></defs><g fill="#01303f" fill-opacity="1"><g transform="translate(211.605642, 127.947748)"><g><path d="M -84.5 63.28125 C -82.882812 60.300781 -80.617188 58.097656 -77.703125 56.671875 C -74.785156 55.242188 -71.585938 54.40625 -68.109375 54.15625 C -64.640625 53.914062 -61.132812 53.976562 -57.59375 54.34375 C -54.0625 54.71875 -50.867188 55.15625 -48.015625 55.65625 C -47.148438 55.90625 -46.3125 56.085938 -45.5 56.203125 C -44.695312 56.328125 -43.863281 56.453125 -43 56.578125 C -43.238281 55.460938 -43.484375 54.347656 -43.734375 53.234375 C -43.984375 52.117188 -44.171875 51.0625 -44.296875 50.0625 C -45.160156 45.476562 -45.992188 40.890625 -46.796875 36.296875 C -47.609375 31.703125 -48.265625 27.109375 -48.765625 22.515625 C -49.015625 20.285156 -49.078125 18.019531 -48.953125 15.71875 C -48.828125 13.425781 -48.453125 11.226562 -47.828125 9.125 C -46.960938 6.019531 -45.101562 3.164062 -42.25 0.5625 C -41.257812 -0.3125 -39.925781 -1.023438 -38.25 -1.578125 C -36.570312 -2.140625 -35.175781 -1.738281 -34.0625 -0.375 C -33.070312 0.988281 -32.484375 2.507812 -32.296875 4.1875 C -32.109375 5.863281 -31.890625 7.507812 -31.640625 9.125 C -31.515625 10.238281 -31.359375 11.382812 -31.171875 12.5625 C -30.984375 13.738281 -30.828125 14.945312 -30.703125 16.1875 C -29.835938 19.164062 -29.097656 22.332031 -28.484375 25.6875 C -28.597656 24.695312 -28.71875 23.734375 -28.84375 22.796875 C -28.96875 21.867188 -29.09375 20.910156 -29.21875 19.921875 C -29.46875 18.304688 -29.6875 16.691406 -29.875 15.078125 C -30.0625 13.460938 -30.28125 11.847656 -30.53125 10.234375 C -30.644531 8.992188 -30.796875 7.722656 -30.984375 6.421875 C -31.171875 5.117188 -31.078125 3.910156 -30.703125 2.796875 C -30.703125 2.671875 -30.644531 2.671875 -30.53125 2.796875 C -29.78125 3.910156 -29.34375 5.242188 -29.21875 6.796875 C -29.09375 8.347656 -28.90625 9.742188 -28.65625 10.984375 L -26.984375 20.65625 C -26.492188 23.882812 -26 27.078125 -25.5 30.234375 C -25 33.398438 -24.503906 36.597656 -24.015625 39.828125 C -23.390625 43.671875 -22.796875 47.515625 -22.234375 51.359375 C -21.679688 55.210938 -21.09375 59.0625 -20.46875 62.90625 C -14.519531 65.269531 -8.8125 67.878906 -3.34375 70.734375 C -3.226562 70.847656 -3.226562 70.96875 -3.34375 71.09375 C -3.46875 71.21875 -3.59375 71.21875 -3.71875 71.09375 C -6.445312 69.851562 -9.207031 68.644531 -12 67.46875 C -14.789062 66.289062 -17.550781 65.207031 -20.28125 64.21875 C -20.15625 64.832031 -20.03125 65.382812 -19.90625 65.875 C -19.789062 66.375 -19.671875 66.875 -19.546875 67.375 C -17.429688 68.25 -15.347656 69.148438 -13.296875 70.078125 C -11.253906 71.003906 -9.179688 71.90625 -7.078125 72.78125 C -5.085938 73.769531 -3.84375 75.441406 -3.34375 77.796875 C -2.851562 80.160156 -3.101562 82.207031 -4.09375 83.9375 C -4.957031 85.300781 -6.320312 86.414062 -8.1875 87.28125 C -10.050781 88.15625 -11.789062 88.285156 -13.40625 87.671875 L -14.515625 87.109375 C -13.398438 91.203125 -12.222656 95.296875 -10.984375 99.390625 C -9.742188 103.484375 -8.441406 107.515625 -7.078125 111.484375 C -6.578125 113.097656 -6.757812 114.554688 -7.625 115.859375 C -8.5 117.160156 -9.617188 118.0625 -10.984375 118.5625 C -10.859375 119.425781 -11.007812 120.164062 -11.4375 120.78125 C -11.875 121.40625 -12.34375 121.96875 -12.84375 122.46875 C -15.945312 124.582031 -19.328125 125.296875 -22.984375 124.609375 C -26.648438 123.929688 -29.96875 122.847656 -32.9375 121.359375 C -36.039062 119.742188 -39.050781 118.035156 -41.96875 116.234375 C -44.882812 114.429688 -47.769531 112.601562 -50.625 110.75 C -56.457031 106.894531 -62.132812 102.765625 -67.65625 98.359375 C -73.175781 93.960938 -78.601562 89.40625 -83.9375 84.6875 C -85.425781 83.445312 -86.046875 82.019531 -85.796875 80.40625 C -86.921875 78.539062 -87.664062 76.679688 -88.03125 74.828125 C -88.40625 72.210938 -88.25 69.972656 -87.5625 68.109375 C -86.882812 66.253906 -85.863281 64.644531 -84.5 63.28125 Z M -62.171875 83.203125 C -59.441406 84.816406 -56.738281 86.394531 -54.0625 87.9375 C -51.394531 89.488281 -48.695312 91.007812 -45.96875 92.5 C -43.988281 93.5 -41.941406 94.523438 -39.828125 95.578125 C -37.722656 96.628906 -35.613281 97.585938 -33.5 98.453125 C -34.488281 94.984375 -35.414062 91.445312 -36.28125 87.84375 C -37.15625 84.25 -37.96875 80.65625 -38.71875 77.0625 C -42.8125 75.695312 -46.78125 74.578125 -50.625 73.703125 C -53.726562 73.085938 -56.859375 72.625 -60.015625 72.3125 C -63.179688 72 -66.316406 71.96875 -69.421875 72.21875 C -70.046875 72.21875 -70.695312 72.25 -71.375 72.3125 C -72.0625 72.375 -72.648438 72.46875 -73.140625 72.59375 L -74.640625 72.96875 C -74.390625 73.457031 -74.140625 73.828125 -73.890625 74.078125 C -72.648438 76.066406 -70.910156 77.773438 -68.671875 79.203125 C -66.441406 80.628906 -64.273438 81.960938 -62.171875 83.203125 Z M -52.484375 58.25 C -50.867188 58.5 -49.191406 58.78125 -47.453125 59.09375 C -45.722656 59.40625 -43.988281 59.75 -42.25 60.125 C -42.375 59.875 -42.4375 59.625 -42.4375 59.375 C -42.4375 59.125 -42.5 58.875 -42.625 58.625 C -43 58.5 -43.335938 58.40625 -43.640625 58.34375 C -43.953125 58.28125 -44.296875 58.25 -44.671875 58.25 C -48.265625 57.757812 -51.953125 57.296875 -55.734375 56.859375 C -59.523438 56.421875 -63.21875 56.390625 -66.8125 56.765625 L -73.890625 57.890625 C -73.890625 58.015625 -73.238281 58.015625 -71.9375 57.890625 C -70.632812 57.765625 -69.984375 57.765625 -69.984375 57.890625 C -66.878906 57.515625 -63.773438 57.390625 -60.671875 57.515625 C -57.578125 57.640625 -54.847656 57.882812 -52.484375 58.25 Z M -43.1875 25.5 C -43.425781 22.394531 -43.515625 19.226562 -43.453125 16 C -43.390625 12.78125 -42.617188 9.742188 -41.140625 6.890625 L -41.5 6.328125 C -42.25 6.703125 -42.867188 7.132812 -43.359375 7.625 C -44.734375 10.476562 -45.328125 13.457031 -45.140625 16.5625 C -44.953125 19.664062 -44.546875 22.769531 -43.921875 25.875 L -42.8125 31.640625 C -42.6875 31.515625 -42.6875 31.078125 -42.8125 30.328125 C -42.9375 29.585938 -42.9375 29.21875 -42.8125 29.21875 Z M -43.1875 25.5 "/></g></g></g><g fill="#01303f" fill-opacity="1"><g transform="translate(163.479824, 246.834526)"><g><path d="M 84.9375 -63.609375 C 83.320312 -60.617188 81.046875 -58.40625 78.109375 -56.96875 C 75.179688 -55.53125 71.96875 -54.6875 68.46875 -54.4375 C 64.976562 -54.1875 61.457031 -54.25 57.90625 -54.625 C 54.351562 -55 51.140625 -55.4375 48.265625 -55.9375 C 47.390625 -56.1875 46.546875 -56.375 45.734375 -56.5 C 44.929688 -56.625 44.09375 -56.75 43.21875 -56.875 C 43.46875 -55.75 43.71875 -54.625 43.96875 -53.5 C 44.21875 -52.382812 44.40625 -51.328125 44.53125 -50.328125 C 45.40625 -45.710938 46.242188 -41.097656 47.046875 -36.484375 C 47.859375 -31.867188 48.515625 -27.253906 49.015625 -22.640625 C 49.265625 -20.390625 49.328125 -18.109375 49.203125 -15.796875 C 49.078125 -13.492188 48.703125 -11.285156 48.078125 -9.171875 C 47.203125 -6.046875 45.332031 -3.175781 42.46875 -0.5625 C 41.46875 0.3125 40.125 1.03125 38.4375 1.59375 C 36.757812 2.15625 35.359375 1.75 34.234375 0.375 C 33.234375 -1 32.640625 -2.523438 32.453125 -4.203125 C 32.273438 -5.890625 32.0625 -7.546875 31.8125 -9.171875 C 31.6875 -10.285156 31.53125 -11.4375 31.34375 -12.625 C 31.15625 -13.8125 31 -15.03125 30.875 -16.28125 C 30 -19.269531 29.25 -22.445312 28.625 -25.8125 C 28.75 -24.820312 28.875 -23.859375 29 -22.921875 C 29.125 -21.984375 29.25 -21.015625 29.375 -20.015625 C 29.625 -18.398438 29.84375 -16.78125 30.03125 -15.15625 C 30.21875 -13.53125 30.4375 -11.910156 30.6875 -10.296875 C 30.8125 -9.046875 30.96875 -7.765625 31.15625 -6.453125 C 31.34375 -5.140625 31.25 -3.925781 30.875 -2.8125 C 30.875 -2.6875 30.8125 -2.6875 30.6875 -2.8125 C 29.9375 -3.925781 29.5 -5.265625 29.375 -6.828125 C 29.25 -8.390625 29.0625 -9.789062 28.8125 -11.03125 L 27.125 -20.765625 C 26.625 -24.003906 26.125 -27.210938 25.625 -30.390625 C 25.132812 -33.578125 24.640625 -36.789062 24.140625 -40.03125 C 23.515625 -43.90625 22.921875 -47.773438 22.359375 -51.640625 C 21.796875 -55.503906 21.203125 -59.367188 20.578125 -63.234375 C 14.585938 -65.609375 8.851562 -68.226562 3.375 -71.09375 C 3.25 -71.21875 3.25 -71.34375 3.375 -71.46875 C 3.5 -71.59375 3.617188 -71.59375 3.734375 -71.46875 C 6.484375 -70.21875 9.257812 -69 12.0625 -67.8125 C 14.875 -66.632812 17.648438 -65.546875 20.390625 -64.546875 C 20.265625 -65.171875 20.140625 -65.734375 20.015625 -66.234375 C 19.890625 -66.734375 19.765625 -67.234375 19.640625 -67.734375 C 17.523438 -68.597656 15.4375 -69.5 13.375 -70.4375 C 11.320312 -71.375 9.234375 -72.28125 7.109375 -73.15625 C 5.109375 -74.15625 3.859375 -75.835938 3.359375 -78.203125 C 2.867188 -80.578125 3.117188 -82.632812 4.109375 -84.375 C 4.984375 -85.75 6.351562 -86.875 8.21875 -87.75 C 10.09375 -88.625 11.84375 -88.75 13.46875 -88.125 L 14.59375 -87.5625 C 13.46875 -91.675781 12.28125 -95.789062 11.03125 -99.90625 C 9.789062 -104.019531 8.484375 -108.070312 7.109375 -112.0625 C 6.609375 -113.6875 6.796875 -115.15625 7.671875 -116.46875 C 8.546875 -117.78125 9.664062 -118.679688 11.03125 -119.171875 C 10.90625 -120.046875 11.0625 -120.796875 11.5 -121.421875 C 11.9375 -122.046875 12.40625 -122.609375 12.90625 -123.109375 C 16.03125 -125.222656 19.429688 -125.9375 23.109375 -125.25 C 26.785156 -124.570312 30.117188 -123.484375 33.109375 -121.984375 C 36.234375 -120.359375 39.257812 -118.640625 42.1875 -116.828125 C 45.125 -115.023438 48.023438 -113.191406 50.890625 -111.328125 C 56.753906 -107.453125 62.457031 -103.300781 68 -98.875 C 73.550781 -94.445312 79.007812 -89.863281 84.375 -85.125 C 85.875 -83.875 86.5 -82.441406 86.25 -80.828125 C 87.375 -78.953125 88.125 -77.082031 88.5 -75.21875 C 88.875 -72.59375 88.71875 -70.34375 88.03125 -68.46875 C 87.34375 -66.601562 86.3125 -64.984375 84.9375 -63.609375 Z M 62.484375 -83.625 C 59.742188 -85.25 57.03125 -86.835938 54.34375 -88.390625 C 51.664062 -89.953125 48.957031 -91.484375 46.21875 -92.984375 C 44.21875 -93.984375 42.15625 -95.007812 40.03125 -96.0625 C 37.914062 -97.125 35.796875 -98.09375 33.671875 -98.96875 C 34.671875 -95.476562 35.609375 -91.921875 36.484375 -88.296875 C 37.359375 -84.679688 38.171875 -81.066406 38.921875 -77.453125 C 43.035156 -76.085938 47.023438 -74.96875 50.890625 -74.09375 C 54.003906 -73.46875 57.148438 -73 60.328125 -72.6875 C 63.515625 -72.375 66.664062 -72.34375 69.78125 -72.59375 C 70.40625 -72.59375 71.0625 -72.625 71.75 -72.6875 C 72.4375 -72.75 73.03125 -72.84375 73.53125 -72.96875 L 75.03125 -73.34375 C 74.78125 -73.84375 74.53125 -74.21875 74.28125 -74.46875 C 73.03125 -76.457031 71.28125 -78.171875 69.03125 -79.609375 C 66.789062 -81.046875 64.609375 -82.382812 62.484375 -83.625 Z M 52.765625 -58.5625 C 51.140625 -58.8125 49.453125 -59.09375 47.703125 -59.40625 C 45.960938 -59.71875 44.21875 -60.0625 42.46875 -60.4375 C 42.59375 -60.1875 42.65625 -59.9375 42.65625 -59.6875 C 42.65625 -59.4375 42.71875 -59.1875 42.84375 -58.9375 C 43.21875 -58.8125 43.5625 -58.71875 43.875 -58.65625 C 44.1875 -58.59375 44.53125 -58.5625 44.90625 -58.5625 C 48.519531 -58.0625 52.226562 -57.59375 56.03125 -57.15625 C 59.832031 -56.71875 63.546875 -56.6875 67.171875 -57.0625 L 74.28125 -58.1875 C 74.28125 -58.3125 73.625 -58.3125 72.3125 -58.1875 C 71 -58.0625 70.34375 -58.0625 70.34375 -58.1875 C 67.226562 -57.8125 64.109375 -57.6875 60.984375 -57.8125 C 57.867188 -57.9375 55.128906 -58.1875 52.765625 -58.5625 Z M 43.40625 -25.625 C 43.65625 -22.507812 43.75 -19.328125 43.6875 -16.078125 C 43.625 -12.835938 42.84375 -9.785156 41.34375 -6.921875 L 41.71875 -6.359375 C 42.46875 -6.734375 43.09375 -7.171875 43.59375 -7.671875 C 44.96875 -10.535156 45.5625 -13.523438 45.375 -16.640625 C 45.1875 -19.765625 44.78125 -22.882812 44.15625 -26 L 43.03125 -31.8125 C 42.90625 -31.6875 42.90625 -31.25 43.03125 -30.5 C 43.15625 -29.75 43.15625 -29.375 43.03125 -29.375 Z M 43.40625 -25.625 "/></g></g></g></svg>