<?xml version="1.0" encoding="UTF-8"?>
<svg version="1.1" xmlns="http://www.w3.org/2000/svg" width="1275" height="361">
<path d="M0 0 C1.37383616 -0.00107419 2.74767188 -0.00301491 4.12150574 -0.00575256 C7.83616255 -0.01058079 11.55069838 -0.0029715 15.26534057 0.00720048 C19.15787468 0.01601069 23.05040534 0.01422298 26.94294739 0.01383972 C33.47533177 0.01477479 40.00766956 0.02343914 46.54003906 0.03710938 C54.09103636 0.05285294 61.64198273 0.0581067 69.19299525 0.05737382 C77.23894672 0.0566984 85.28487858 0.06363718 93.33082414 0.07282043 C95.64749809 0.07495098 97.96416889 0.07566149 100.28084373 0.07605934 C103.91946716 0.07706396 107.55804786 0.0831703 111.19665718 0.09322548 C113.16867765 0.0975382 115.14070688 0.09697913 117.11273193 0.09628296 C118.28609604 0.10054794 119.45946014 0.10481293 120.66838074 0.10920715 C121.68800998 0.110883 122.70763922 0.11255884 123.75816631 0.11428547 C126.13770207 0.22939725 128.14363692 0.56162444 130.41723633 1.24291992 C130.41723633 1.90291992 130.41723633 2.56291992 130.41723633 3.24291992 C131.40723633 2.91291992 132.39723633 2.58291992 133.41723633 2.24291992 C136.06475637 4.82076839 138.36155698 7.1594009 140.41723633 10.24291992 C140.08723633 10.90291992 139.75723633 11.56291992 139.41723633 12.24291992 C140.07723633 12.24291992 140.73723633 12.24291992 141.41723633 12.24291992 C141.55000977 13.12334961 141.6827832 14.0037793 141.81958008 14.91088867 C142.08448242 16.65305664 142.08448242 16.65305664 142.35473633 18.43041992 C142.52875977 19.57897461 142.7027832 20.7275293 142.88208008 21.91088867 C143.19956724 23.88765182 143.54547988 25.86073558 143.95239258 27.82104492 C144.6391048 31.39887332 144.85416487 34.99337496 145.13598633 38.62182617 C145.3835141 40.92864751 145.84765458 43.00256506 146.41723633 45.24291992 C146.41723633 47.24291992 146.41723633 49.24291992 146.41723633 51.24291992 C146.74274135 52.91113315 147.07569696 54.57791549 147.41723633 56.24291992 C147.39661133 57.04729492 147.37598633 57.85166992 147.35473633 58.68041992 C147.28313164 61.32898128 147.28313164 61.32898128 148.41723633 63.99291992 C149.31400375 66.90741406 149.50054131 68.53559311 149.41723633 71.49291992 C149.300258 75.82111807 149.99058639 79.67965768 150.97973633 83.88354492 C151.44387423 86.3865743 151.41723633 88.70291061 151.41723633 91.24291992 C151.74723633 92.33604492 152.07723633 93.42916992 152.41723633 94.55541992 C153.33356362 97.93437683 153.46251808 100.59791364 153.35473633 104.06713867 C153.45169749 107.44259914 154.25565278 110.63406131 154.97973633 113.92260742 C155.50706626 116.71933939 155.41723633 119.40333608 155.41723633 122.24291992 C155.74723633 123.19166992 156.07723633 124.14041992 156.41723633 125.11791992 C157.30401059 127.8890895 157.52741754 129.48163246 157.47973633 132.30541992 C157.42741886 135.60142061 157.74888687 138.06825998 158.41723633 141.24291992 C158.39661133 142.21229492 158.37598633 143.18166992 158.35473633 144.18041992 C158.25635711 147.25929221 158.25635711 147.25929221 159.41723633 150.05541992 C160.51680551 153.56029668 160.50258624 156.27063392 160.29223633 159.89916992 C160.31855985 162.37842486 160.31855985 162.37842486 161.39379883 165.12182617 C163.27300434 170.85268573 163.59676399 177.72865711 161.65942383 183.50073242 C159.23896526 187.90329878 156.38521459 191.41911507 151.72973633 193.36791992 C150.09004883 193.80104492 150.09004883 193.80104492 148.41723633 194.24291992 C147.19724442 194.58530197 145.9772525 194.92768402 144.72029114 195.28044128 C137.65828434 196.82408179 130.44582752 196.53032399 123.25585938 196.51757812 C121.62870043 196.52193142 120.00154354 196.52711662 118.37438965 196.5330658 C113.97547353 196.54640183 109.57664362 196.54704041 105.17771125 196.5445025 C101.49512734 196.54342894 97.8125606 196.54832605 94.12998039 196.55310792 C85.43576149 196.56418483 76.74158581 196.56465099 68.04736328 196.55859375 C59.10247054 196.55255729 50.15773523 196.56486081 41.21286935 196.58616382 C33.51149235 196.60382544 25.81016525 196.60977393 18.10876876 196.60652608 C13.51867851 196.60472006 8.92870053 196.60728077 4.33862877 196.62124062 C0.01864646 196.63388852 -4.30109196 196.6318096 -8.62107086 196.61882973 C-10.19795759 196.61647933 -11.77486186 196.61914287 -13.35172844 196.62745285 C-22.48244572 196.67206579 -30.81694717 196.00226128 -39.58276367 193.24291992 C-39.58276367 192.58291992 -39.58276367 191.92291992 -39.58276367 191.24291992 C-40.57276367 191.24291992 -41.56276367 191.24291992 -42.58276367 191.24291992 C-42.58276367 190.58291992 -42.58276367 189.92291992 -42.58276367 189.24291992 C-43.57276367 188.91291992 -44.56276367 188.58291992 -45.58276367 188.24291992 C-45.91276367 187.25291992 -46.24276367 186.26291992 -46.58276367 185.24291992 C-47.24276367 185.24291992 -47.90276367 185.24291992 -48.58276367 185.24291992 C-48.72713867 184.19104492 -48.87151367 183.13916992 -49.02026367 182.05541992 C-49.50439806 178.41357627 -49.50439806 178.41357627 -50.20776367 175.55541992 C-50.61712305 173.0310371 -50.24780048 171.68138823 -49.58276367 169.24291992 C-49.54430924 167.24328964 -49.53732086 165.24240359 -49.58276367 163.24291992 C-48.92276367 163.24291992 -48.26276367 163.24291992 -47.58276367 163.24291992 C-47.86120117 162.12916992 -47.86120117 162.12916992 -48.14526367 160.99291992 C-48.59222057 158.18347654 -48.31327788 156.92147203 -47.58276367 154.24291992 C-47.60338867 153.29416992 -47.62401367 152.34541992 -47.64526367 151.36791992 C-47.58276367 148.24291992 -47.58276367 148.24291992 -46.58276367 145.43041992 C-45.65956232 142.4877156 -45.50206009 140.75417223 -45.58276367 137.74291992 C-45.68794716 133.79853924 -44.83348793 130.9950927 -43.58276367 127.24291992 C-43.53919756 125.76439497 -43.54286813 124.28404847 -43.58276367 122.80541992 C-43.69503016 118.60945987 -42.75760345 115.28143166 -41.58276367 111.24291992 C-41.58276367 109.92291992 -41.58276367 108.60291992 -41.58276367 107.24291992 C-41.58276367 103.24291992 -41.58276367 103.24291992 -40.58276367 99.80541992 C-39.5370039 96.07990073 -39.48497024 93.11789059 -39.57495117 89.29370117 C-39.58434406 86.82806733 -39.11101548 84.64940038 -38.58276367 82.24291992 C-38.3131223 79.71243938 -38.08278121 77.18062314 -37.86401367 74.64526367 C-37.58276367 72.24291992 -37.58276367 72.24291992 -37.04760742 70.11401367 C-36.46022306 68.09903185 -36.46022306 68.09903185 -36.64526367 65.36791992 C-36.58276367 62.24291992 -36.58276367 62.24291992 -35.58276367 59.43041992 C-34.6637815 56.50116426 -34.50158073 54.79904074 -34.58276367 51.80541992 C-34.69494396 47.60567033 -33.73909345 44.29007415 -32.58276367 40.24291992 C-32.51812062 37.94405122 -32.58314057 35.66647471 -32.64526367 33.36791992 C-32.55933793 30.44644464 -31.52040134 27.99723056 -30.58276367 25.24291992 C-30.5397959 23.88943511 -30.54235878 22.53398366 -30.58276367 21.18041992 C-30.58276367 17.40624775 -30.19635146 15.55973927 -28.58276367 12.24291992 C-28.33526367 11.41791992 -28.08776367 10.59291992 -27.83276367 9.74291992 C-25.58781817 5.25302892 -22.37624071 2.9252507 -17.81132507 1.18852234 C-12.00581457 -0.40660119 -5.97099265 -0.02626226 0 0 Z M-11.58276367 20.24291992 C-11.91276367 20.90291992 -12.24276367 21.56291992 -12.58276367 22.24291992 C-11.19263235 24.79543765 -9.75801159 27.22816763 -8.20776367 29.68041992 C-7.36403005 31.03167211 -6.52278321 32.38448102 -5.68432617 33.73901367 C-5.11705811 34.63898071 -5.11705811 34.63898071 -4.53833008 35.55712891 C-3.58276367 37.24291992 -3.58276367 37.24291992 -2.58276367 40.24291992 C-1.92276367 40.24291992 -1.26276367 40.24291992 -0.58276367 40.24291992 C-0.45619385 40.83266602 -0.32962402 41.42241211 -0.19921875 42.0300293 C0.79299252 45.59177306 2.83357515 48.59905574 4.72973633 51.74291992 C5.17124023 52.48413086 5.61274414 53.2253418 6.06762695 53.98901367 C7.51196306 56.41034143 8.96394406 58.82695847 10.41723633 61.24291992 C11.41086938 62.89908385 12.40435809 64.5553344 13.39770508 66.21166992 C14.90997179 68.73227784 16.4229616 71.25243692 17.93823242 73.77124023 C21.6790588 79.99348547 25.37503346 86.24082579 29.0324707 92.51245117 C29.78014134 93.79085174 30.54668426 95.05841901 31.33251953 96.3137207 C32.41723633 98.24291992 32.41723633 98.24291992 33.1640625 100.48071289 C34.26301047 103.2188467 35.02488291 104.47356075 37.41723633 106.24291992 C42.7530098 107.23060344 47.86606339 107.20185947 53.27294922 106.96850586 C55.84592182 106.86826333 58.40701603 106.86397671 60.98168945 106.86791992 C69.41430463 106.90982543 69.41430463 106.90982543 76.68969727 103.28613281 C78.26713527 100.67094747 79.33312716 98.095349 80.41723633 95.24291992 C81.43402542 93.4466746 82.48439877 91.66907 83.56567383 89.91088867 C84.64120198 88.08407006 85.71672266 86.25724705 86.79223633 84.43041992 C91.06952187 77.17659735 95.38652109 69.95391803 99.83129883 62.80151367 C100.3546582 61.95717773 100.87801758 61.1128418 101.41723633 60.24291992 C102.26415039 58.93000977 102.26415039 58.93000977 103.12817383 57.59057617 C104.65788771 55.25102235 104.65788771 55.25102235 104.41723633 52.24291992 C105.07723633 52.24291992 105.73723633 52.24291992 106.41723633 52.24291992 C108.07324199 49.68776677 109.6061283 47.13880372 111.10473633 44.49291992 C112.00178018 42.93297143 112.89891618 41.37307593 113.79614258 39.81323242 C114.45960693 38.65162598 114.45960693 38.65162598 115.13647461 37.46655273 C116.28073025 35.47991904 117.44722811 33.51020558 118.63208008 31.54760742 C119.26243164 30.49831055 119.8927832 29.44901367 120.54223633 28.36791992 C121.38141602 26.97959961 121.38141602 26.97959961 122.23754883 25.56323242 C123.64383946 23.23104733 123.64383946 23.23104733 123.41723633 20.24291992 C113.51723633 20.24291992 103.61723633 20.24291992 93.41723633 20.24291992 C91.51973633 23.56354492 89.62223633 26.88416992 87.66723633 30.30541992 C84.43286133 35.96557617 84.43286133 35.96557617 82.85449219 38.72509766 C81.99804187 40.22544965 81.14384886 41.72709929 80.29443359 43.23144531 C77.92848203 47.41609356 75.42111964 51.49249627 72.85473633 55.55541992 C69.9935652 60.09736628 67.15947527 64.65221351 64.38989258 69.25073242 C63.89368408 70.07275146 63.39747559 70.89477051 62.88623047 71.74169922 C61.91900045 73.34742644 60.95583452 74.95560986 59.99707031 76.56640625 C59.33880249 77.65731567 59.33880249 77.65731567 58.66723633 78.77026367 C58.28051758 79.41729248 57.89379883 80.06432129 57.49536133 80.73095703 C56.41723633 82.24291992 56.41723633 82.24291992 54.41723633 83.24291992 C54.00538086 82.14850586 54.00538086 82.14850586 53.58520508 81.03198242 C52.47663287 78.38475649 51.22304095 76.06448475 49.72973633 73.61791992 C49.20379883 72.75424805 48.67786133 71.89057617 48.13598633 71.00073242 C46.35840761 68.14852657 44.54748241 65.31966912 42.72973633 62.49291992 C40.377068 58.82338193 38.2363925 55.20225982 36.41723633 51.24291992 C35.75723633 51.24291992 35.09723633 51.24291992 34.41723633 51.24291992 C34.23161133 50.40760742 34.23161133 50.40760742 34.04223633 49.55541992 C32.80770579 44.80512034 32.80770579 44.80512034 30.04223633 40.86791992 C27.55253565 38.37821925 26.07954761 35.31434276 24.41723633 32.24291992 C23.35521885 30.28432487 22.29269611 28.32600373 21.22973633 26.36791992 C20.72055664 25.42174805 20.21137695 24.47557617 19.68676758 23.50073242 C18.60697901 21.34273323 18.60697901 21.34273323 17.41723633 20.24291992 C15.27164806 20.15516387 13.12319212 20.13596773 10.97583008 20.14526367 C9.6706543 20.14848633 8.36547852 20.15170898 7.02075195 20.1550293 C5.63207943 20.16338591 4.24340756 20.17185087 2.85473633 20.18041992 C1.46215977 20.18543326 0.06958151 20.18999646 -1.32299805 20.1940918 C-4.74296237 20.20592558 -8.16284211 20.22241112 -11.58276367 20.24291992 Z M67.41723633 115.24291992 C67.41723633 136.36291992 67.41723633 157.48291992 67.41723633 179.24291992 C69.39723633 179.24291992 71.37723633 179.24291992 73.41723633 179.24291992 C73.41723633 158.45291992 73.41723633 137.66291992 73.41723633 116.24291992 C70.43692352 115.54409861 70.43692352 115.54409861 67.41723633 115.24291992 Z M39.41723633 116.24291992 C39.41723633 137.03291992 39.41723633 157.82291992 39.41723633 179.24291992 C41.89223633 178.74791992 41.89223633 178.74791992 44.41723633 178.24291992 C44.41723633 158.11291992 44.41723633 137.98291992 44.41723633 117.24291992 C42.76723633 116.91291992 41.11723633 116.58291992 39.41723633 116.24291992 Z M53.41723633 131.24291992 C53.41723633 147.08291992 53.41723633 162.92291992 53.41723633 179.24291992 C55.06723633 179.57291992 56.71723633 179.90291992 58.41723633 180.24291992 C58.41723633 164.07291992 58.41723633 147.90291992 58.41723633 131.24291992 C56.76723633 131.24291992 55.11723633 131.24291992 53.41723633 131.24291992 Z " fill="#2561EB" transform="translate(66.582763671875,99.757080078125)"/>
<path d="M0 0 C1.07655853 -0.00151062 1.07655853 -0.00151062 2.17486572 -0.00305176 C20.19115103 0.0140898 37.77598363 1.33839717 51.5625 14.25 C58.36401843 21.40705235 62.05868929 30.59448081 63.5625 40.25 C59.18857891 40.92387598 54.81320694 41.58782758 50.4375 42.25 C49.2 42.44078125 47.9625 42.6315625 46.6875 42.828125 C45.48867188 43.00859375 44.28984375 43.1890625 43.0546875 43.375 C41.40509033 43.62636719 41.40509033 43.62636719 39.72216797 43.8828125 C36.63618058 44.24143752 33.66595276 44.31542193 30.5625 44.25 C30.28277344 43.59773438 30.00304687 42.94546875 29.71484375 42.2734375 C26.17461249 34.55550568 22.42393984 29.43618686 14.3125 26.375 C3.98670578 23.71436591 -10.81071136 23.22247015 -20.4375 28.25 C-24.22710039 30.81375923 -26.96902841 32.84458523 -28.4375 37.25 C-28.94731092 42.10574006 -28.96982283 46.07445375 -26.9375 50.5625 C-21.22990337 56.69816638 -14.47767365 59.19507909 -6.5 61.1875 C-5.55777588 61.43491943 -4.61555176 61.68233887 -3.64477539 61.93725586 C2.6722811 63.57692758 9.02148093 65.07069822 15.37695312 66.55297852 C52.42129192 75.2154062 52.42129192 75.2154062 62.03125 90.6015625 C68.61374112 102.96286849 69.53015581 116.90209716 65.65625 130.37109375 C61.23592242 142.00602741 53.23424817 149.72182007 42.125 155.0625 C16.63892816 165.65503753 -15.81823412 165.33654394 -41.4375 155.25 C-45.0010656 153.51498315 -48.22860607 151.5718342 -51.4375 149.25 C-52.08074219 148.78851563 -52.72398437 148.32703125 -53.38671875 147.8515625 C-61.38215115 141.57315355 -66.71430168 131.95054724 -69.4375 122.25 C-69.15495023 120.57397658 -68.82811816 118.90417845 -68.4375 117.25 C-64.58494143 116.5738128 -60.73023043 115.91076908 -56.875 115.25 C-55.78896484 115.05921875 -54.70292969 114.8684375 -53.58398438 114.671875 C-48.12836726 113.74325932 -42.97297904 112.99586036 -37.4375 113.25 C-37.0971875 113.96285156 -36.756875 114.67570312 -36.40625 115.41015625 C-32.20792155 123.70632125 -27.78152736 129.9744672 -18.75 133.125 C-17.32273983 133.53726162 -15.88422717 133.91234375 -14.4375 134.25 C-13.37982422 134.52457031 -13.37982422 134.52457031 -12.30078125 134.8046875 C1.30008968 136.9199662 17.29900154 136.70240161 28.96875 128.69140625 C32.18114042 125.78608256 33.26535277 122.44039961 33.8359375 118.234375 C34.07247667 113.46720091 33.1884095 110.18886425 30.5625 106.25 C21.51772536 97.20522536 8.94935289 95.49092799 -3.0625 92.8125 C-46.78879751 83.0306073 -46.78879751 83.0306073 -57.4375 67.25 C-63.04636931 56.27754721 -64.54301638 42.71276572 -61.25 30.75 C-57.10210785 19.2323646 -49.73810611 11.89906585 -38.84960938 6.60668945 C-26.26611013 0.79467738 -13.65382196 0.01320598 0 0 Z " fill="#2361EA" transform="translate(793.4375,107.75)"/>
<path d="M0 0 C12.24054961 10.18794211 16.97286146 24.61983497 18.55029297 40.00708008 C20.22322584 59.97171909 17.06051875 79.51797773 3.8125 95.25 C-8.13340513 107.85623154 -23.18549707 112.16486632 -40.1015625 113.1875 C-57.30485699 113.55063023 -74.18427773 109.30557119 -87.125 97.5 C-100.03172029 83.73108989 -104.33193623 65.44320697 -104 47 C-103.27790312 28.66448313 -97.74074334 12.68936411 -84.21484375 -0.1875 C-61.24692292 -18.98311775 -23.0017567 -17.51509914 0 0 Z M-61.75 17.5 C-67.2736497 24.25953479 -69.65767553 33.37057075 -70 42 C-70.0515625 43.16144531 -70.103125 44.32289063 -70.15625 45.51953125 C-70.52567093 57.94648339 -69.93117183 71.80887061 -62 82 C-57.57184992 86.69221407 -53.33761899 89.6128525 -46.80078125 90.37109375 C-37.01501754 90.55738488 -30.29708114 89.11025152 -23.125 82.25 C-13.57229536 67.63998114 -13.02369293 49.24695135 -16.125 32.4375 C-18.12820751 24.46193892 -21.10417228 17.5208297 -28.1875 12.9375 C-39.36636873 6.74171674 -52.9121705 8.58790303 -61.75 17.5 Z " fill="#2361EA" transform="translate(463,157)"/>
<path d="M0 0 C10.56 0 21.12 0 32 0 C32.01458252 2.30524658 32.02916504 4.61049316 32.04418945 6.9855957 C32.09472593 14.6371549 32.16135365 22.28851466 32.23571491 29.93987751 C32.28027435 34.57489058 32.31956153 39.20981867 32.34643555 43.8449707 C32.37261339 48.32554346 32.41311604 52.80578661 32.46318626 57.28615379 C32.4797577 58.98795634 32.49133209 60.68981576 32.49761391 62.39168739 C32.35686187 79.74412854 32.35686187 79.74412854 40.3046875 94.66015625 C45.05032138 98.41073786 50.16658319 98.48306314 55.98828125 98.3828125 C61.73447461 97.65242735 65.2584335 94.7415665 69.25 90.75 C73.99106133 83.29976077 76.13171043 76.44683087 76.20532227 67.66113281 C76.21522186 66.92903091 76.22512146 66.19692902 76.23532104 65.44264221 C76.2668382 63.02950239 76.29165464 60.61634291 76.31640625 58.203125 C76.33698423 56.52731828 76.35798093 54.85151666 76.37937927 53.17572021 C76.43451274 48.76991913 76.48396042 44.36407188 76.53222656 39.95819092 C76.5913489 34.66924502 76.65752879 29.38038329 76.72252655 24.09150696 C76.82042628 16.06105615 76.90935738 8.03055078 77 0 C87.89 0 98.78 0 110 0 C110 39.93 110 79.86 110 121 C100.1 121 90.2 121 80 121 C78.15892054 117.31784107 78.584971 112.75808226 78.39453125 108.67773438 C78.53360713 105.03510546 78.53360713 105.03510546 77 102 C76.57589844 102.65226562 76.15179687 103.30453125 75.71484375 103.9765625 C68.30740779 115.01445608 60.60667083 120.84678068 47.375 123.8125 C45.704375 123.9053125 45.704375 123.9053125 44 124 C43.26652344 124.05027344 42.53304687 124.10054688 41.77734375 124.15234375 C30.92357417 124.58236632 20.5741512 121.79096551 12 115 C4.26802474 107.38674989 0.03669716 96.81319773 -0.12025452 85.98197937 C-0.12313963 84.37820537 -0.1205264 82.77441561 -0.11352539 81.1706543 C-0.11367142 80.29210281 -0.11381744 79.41355133 -0.1139679 78.50837708 C-0.11327299 75.61363224 -0.10550036 72.7189523 -0.09765625 69.82421875 C-0.09579057 67.81354304 -0.09436737 65.80286688 -0.09336853 63.79219055 C-0.08955517 58.50681294 -0.07973495 53.22146292 -0.06866455 47.93609619 C-0.05842505 42.54008355 -0.05386547 37.14406644 -0.04882812 31.74804688 C-0.03811163 21.16535053 -0.02052437 10.58268188 0 0 Z " fill="#2361EA" transform="translate(504,146)"/>
<path d="M0 0 C12.90577303 10.45918099 18.79867427 25.91338889 21 42 C21.495 50.91 21.495 50.91 22 60 C-3.74 60 -29.48 60 -56 60 C-53.78315669 77.37615929 -53.78315669 77.37615929 -44.19921875 90.375 C-38.00643349 94.19410526 -31.73907613 94.9320183 -24.65625 93.5390625 C-18.96097361 91.92540086 -16.3000254 89.90003772 -13 85 C-12.31731862 83.67479497 -11.64686857 82.34304999 -11 81 C-0.55286325 80.62465377 9.64511186 81.78687503 20 83 C15.93782527 95.56067187 8.33519014 104.28285029 -3 111 C-18.71714917 118.66467652 -37.78694326 118.79050524 -54.36328125 114.03515625 C-66.73964047 109.71579234 -75.37439022 102.30337883 -82 91 C-91.03879538 71.91043215 -92.43477044 47.53681072 -86.25390625 27.3359375 C-80.6593885 12.4520803 -72.74097865 1.75001446 -58 -5 C-39.26198139 -11.61198313 -16.72989901 -11.63708348 0 0 Z M-50 20 C-54.1959714 27.06838136 -55 31.55134036 -55 40 C-40.15 40 -25.3 40 -10 40 C-11.19657141 26.46432649 -11.19657141 26.46432649 -19 16 C-29.52665774 8.98222818 -41.78691569 10.2739791 -50 20 Z " fill="#2361EA" transform="translate(1144,153)"/>
<path d="M0 0 C30.38967266 -3.75478294 30.38967266 -3.75478294 38.82128906 1.88818359 C43.49683069 7.25054617 45.94665054 13.74445208 48.47900391 20.31933594 C50.94870578 26.29577662 54.17657097 31.82186362 57.37463379 37.43228149 C58.40629812 39.25730364 59.4141835 41.09315311 60.41308594 42.9362793 C64.3325271 50.15170594 68.48955293 57.13816802 73 64 C73.41137207 63.27748047 73.82274414 62.55496094 74.24658203 61.81054688 C95.60712103 24.31264476 95.60712103 24.31264476 101.43969727 14.78613281 C103.0961336 11.97563661 103.0961336 11.97563661 104.30834961 8.67480469 C105.8752011 5.07144428 107.12770635 2.6989583 110 0 C115.87737862 -1.94556632 122.36288 -1.12302871 128.4375 -0.75 C130.13978631 -0.68975354 131.84227681 -0.6350098 133.54492188 -0.5859375 C137.70168086 -0.45417948 141.84859259 -0.24754207 146 0 C141.70865946 8.07101739 137.09304399 15.89814749 132.3125 23.6875 C130.80490691 26.15349728 129.30021975 28.62125451 127.796875 31.08984375 C127.21432701 32.04638351 127.21432701 32.04638351 126.62001038 33.02224731 C122.03807015 40.5608663 117.55268943 48.15652209 113.0625 55.75 C107.42343772 65.28287146 101.75287407 74.78729279 95.8125 84.13671875 C95.214375 85.08160156 94.61625 86.02648437 94 87 C93.47653488 87.74928268 92.95306976 88.49856537 92.41374207 89.27055359 C90.70349875 92.57244125 90.60363238 94.82586507 90.56762695 98.53442383 C90.54783279 99.83539505 90.52803864 101.13636627 90.50764465 102.47676086 C90.50087586 103.88684952 90.49442888 105.29693975 90.48828125 106.70703125 C90.47142657 108.15721655 90.45327526 109.6073873 90.43388367 111.05754089 C90.3864627 114.86326555 90.35660256 118.66893124 90.33044434 122.47485352 C90.29534573 127.04722253 90.23835561 131.61936516 90.18505096 136.19155121 C90.10662959 143.12767179 90.05595509 150.06349793 90 157 C78.78 157 67.56 157 56 157 C56.12503906 152.63265625 56.25007813 148.2653125 56.37890625 143.765625 C58.33730646 102.66200988 58.33730646 102.66200988 40.50830078 67.14599609 C36.02319305 61.7462387 32.75636369 55.45975105 29.28723145 49.3840332 C27.31576794 45.94885679 25.28883377 42.54706548 23.26171875 39.14453125 C22.69778915 38.19515182 22.69778915 38.19515182 22.12246704 37.22659302 C18.55875002 31.23520834 14.88317984 25.32026297 11.15625 19.4296875 C8.6765194 15.50574343 6.26968989 11.538775 3.875 7.5625 C3.2879126 6.59268188 3.2879126 6.59268188 2.68896484 5.60327148 C0 1.1202342 0 1.1202342 0 0 Z " fill="#2361EA" transform="translate(219,110)"/>
<path d="M0 0 C28.71 0 57.42 0 87 0 C87 27.48953863 87 27.48953863 77.125 38.29296875 C72.80556941 43.16567242 68.90615303 48.29385943 65 53.5 C63.65348882 55.26389554 62.305837 57.02692094 60.95703125 58.7890625 C54.86732181 66.78264345 48.93535872 74.89158644 43 83 C37.555 90.425 37.555 90.425 32 98 C52.13 98 72.26 98 93 98 C93 105.59 93 113.18 93 121 C60.66 121 28.32 121 -5 121 C-5 94.64056818 -5 94.64056818 2.125 87.25 C3.60891062 85.51745542 5.09064036 83.78304083 6.5703125 82.046875 C7.31829102 81.20576172 8.06626953 80.36464844 8.83691406 79.49804688 C12.14437268 75.67841747 15.0593633 71.60414876 18 67.5 C23.6280624 59.79127961 29.39323981 52.19252767 35.23242188 44.64257812 C40.41473516 37.89965128 45.13859398 31.02203092 50 24 C33.5 24 17 24 0 24 C0 16.08 0 8.16 0 0 Z " fill="#2361EA" transform="translate(946,146)"/>
<path d="M0 0 C1.1240625 -0.01417969 2.248125 -0.02835938 3.40625 -0.04296875 C6.5 0.1875 6.5 0.1875 10.5 2.1875 C10.5 11.0975 10.5 20.0075 10.5 29.1875 C7.86 28.8575 5.22 28.5275 2.5 28.1875 C-5.11829414 27.5628818 -9.87914968 28.3353689 -16.5 32.1875 C-17.16 32.1875 -17.82 32.1875 -18.5 32.1875 C-18.933125 33.06148437 -18.933125 33.06148437 -19.375 33.953125 C-20.06641744 35.32635685 -20.77176287 36.6928091 -21.5 38.046875 C-21.995 38.98273438 -21.995 38.98273438 -22.5 39.9375 C-22.83 40.55109375 -23.16 41.1646875 -23.5 41.796875 C-27.12342887 50.45913464 -26.84477239 59.2737104 -26.9140625 68.5 C-26.93279674 70.08041367 -26.95237179 71.66081758 -26.9727478 73.24121094 C-27.02383701 77.37732151 -27.06358611 81.51346444 -27.10089111 85.64971924 C-27.14815718 90.62510061 -27.20965453 95.60032441 -27.26873779 100.57557678 C-27.35666675 108.1128201 -27.42663331 115.65003756 -27.5 123.1875 C-38.39 123.1875 -49.28 123.1875 -60.5 123.1875 C-60.5 83.2575 -60.5 43.3275 -60.5 2.1875 C-50.6 2.1875 -40.7 2.1875 -30.5 2.1875 C-29.63580777 4.78007669 -29.32419068 6.52787707 -29.18359375 9.19921875 C-29.14169922 9.95654297 -29.09980469 10.71386719 -29.05664062 11.49414062 C-29.01732422 12.27982422 -28.97800781 13.06550781 -28.9375 13.875 C-28.89431641 14.67228516 -28.85113281 15.46957031 -28.80664062 16.29101562 C-28.70072632 18.25631447 -28.59987449 20.22188496 -28.5 22.1875 C-26.88113139 19.75919709 -25.49950457 17.37765821 -24.125 14.8125 C-20.24101134 7.84615987 -16.50470275 3.16749897 -8.6875 0.58984375 C-5.77173679 0.05355159 -2.9636234 0.01699325 0 0 Z " fill="#2361EA" transform="translate(704.5,143.8125)"/>
<path d="M0 0 C0 9.24 0 18.48 0 28 C-2.31 27.67 -4.62 27.34 -7 27 C-14.30769882 26.37215545 -20.88046 26.57436776 -27 31 C-37.56426042 42.3502229 -37.13884573 58.26666442 -37.31640625 72.78125 C-37.33701323 74.20471753 -37.35801058 75.62817945 -37.37937927 77.05163574 C-37.43421385 80.77347232 -37.48379111 84.49536053 -37.53222656 88.21728516 C-37.59162612 92.69620326 -37.65763868 97.17502832 -37.72252655 101.65386963 C-37.82004922 108.4358556 -37.90923734 115.21790503 -38 122 C-48.56 122 -59.12 122 -70 122 C-70.33 82.07 -70.66 42.14 -71 1 C-60.77 1 -50.54 1 -40 1 C-38.875 7.75 -38.875 7.75 -38.68359375 11.0859375 C-38.64169922 11.78847656 -38.59980469 12.49101562 -38.55664062 13.21484375 C-38.51732422 13.92769531 -38.47800781 14.64054688 -38.4375 15.375 C-38.37272461 16.47908203 -38.37272461 16.47908203 -38.30664062 17.60546875 C-38.20156201 19.40348068 -38.10037907 21.20171958 -38 23 C-37.23816406 21.35451172 -37.23816406 21.35451172 -36.4609375 19.67578125 C-35.76639112 18.22098816 -35.07103542 16.76658126 -34.375 15.3125 C-34.04371094 14.59126953 -33.71242188 13.87003906 -33.37109375 13.12695312 C-30.46965671 7.13247471 -26.78781275 2.69113237 -20.375 0.1875 C-13.85057176 -2.04188957 -6.59966942 -1.64991736 0 0 Z " fill="#2361EA" transform="translate(1258,145)"/>
<path d="M0 0 C10.56 0 21.12 0 32 0 C32 39.93 32 79.86 32 121 C21.44 121 10.88 121 0 121 C0 81.07 0 41.14 0 0 Z " fill="#2361EA" transform="translate(885,146)"/>
<path d="M0 0 C5.18624266 0.04195141 9.47774939 0.36303409 14.375 2.1875 C16.01955847 2.73302506 17.6654537 3.27453287 19.3125 3.8125 C20.667173 4.26933463 22.02152311 4.72713371 23.375 5.1875 C23.375 5.8475 23.375 6.5075 23.375 7.1875 C24.055625 7.084375 24.73625 6.98125 25.4375 6.875 C29.5533541 7.31285682 32.39649733 9.35491821 35.375 12.1875 C35.375 12.8475 35.375 13.5075 35.375 14.1875 C36.365 14.1875 37.355 14.1875 38.375 14.1875 C38.375 14.8475 38.375 15.5075 38.375 16.1875 C39.035 16.1875 39.695 16.1875 40.375 16.1875 C40.375 16.8475 40.375 17.5075 40.375 18.1875 C41.035 18.1875 41.695 18.1875 42.375 18.1875 C42.375 18.8475 42.375 19.5075 42.375 20.1875 C43.035 20.5175 43.695 20.8475 44.375 21.1875 C52.64850476 29.46100476 56.27926331 40.7578328 57.375 52.1875 C57.375 52.8475 57.375 53.5075 57.375 54.1875 C50.775 54.1875 44.175 54.1875 37.375 54.1875 C36.88 50.2275 36.88 50.2275 36.375 46.1875 C35.11038192 43.57974959 35.11038192 43.57974959 33.375 41.1875 C32.7470027 40.00158236 32.12219511 38.81397203 31.5 37.625 C29.651162 34.33421112 27.39001294 32.46913141 24.375 30.1875 C23.88 28.7025 23.88 28.7025 23.375 27.1875 C21.3937415 26.46704236 19.38995907 25.80748741 17.375 25.1875 C16.570625 24.671875 15.76625 24.15625 14.9375 23.625 C11.71060513 21.81479068 9.04749385 21.56097395 5.375 21.1875 C4.39466797 21.01541016 4.39466797 21.01541016 3.39453125 20.83984375 C-1.50207515 20.01585002 -4.82379736 20.68124035 -9.625 22.1875 C-10.615 21.8575 -11.605 21.5275 -12.625 21.1875 C-12.955 21.8475 -13.285 22.5075 -13.625 23.1875 C-15.35421529 24.19892781 -17.08631051 25.20641887 -18.84375 26.16796875 C-20.7717203 27.22118347 -20.7717203 27.22118347 -22.9375 28.9375 C-24.625 30.1875 -24.625 30.1875 -26.625 30.1875 C-26.625 30.8475 -26.625 31.5075 -26.625 32.1875 C-27.285 32.1875 -27.945 32.1875 -28.625 32.1875 C-28.893125 32.93 -29.16125 33.6725 -29.4375 34.4375 C-30.625 37.1875 -30.625 37.1875 -32.0625 38.9375 C-35.17030002 43.41273203 -36.31683383 48.95483532 -37.625 54.1875 C-43.895 54.1875 -50.165 54.1875 -56.625 54.1875 C-57.625 48.1875 -57.625 48.1875 -56.625 45.1875 C-55.965 45.1875 -55.305 45.1875 -54.625 45.1875 C-54.82351562 44.61515625 -55.02203125 44.0428125 -55.2265625 43.453125 C-56.22913201 37.75223952 -51.2009471 30.9773188 -48.1796875 26.3046875 C-44.1008415 20.75007812 -39.43872493 14.98547252 -33.625 11.1875 C-32.965 11.1875 -32.305 11.1875 -31.625 11.1875 C-31.295 10.5275 -30.965 9.8675 -30.625 9.1875 C-25.31730769 6.1875 -25.31730769 6.1875 -21.625 6.1875 C-21.295 5.5275 -20.965 4.8675 -20.625 4.1875 C-16.34737601 2.45608077 -12.17591874 1.81213591 -7.625 1.1875 C-5.73007035 -0.70742965 -2.52265247 0.01327712 0 0 Z " fill="#225EEB" transform="translate(122.625,35.8125)"/>
<path d="M0 0 C10.56 0 21.12 0 32 0 C32 7.92 32 15.84 32 24 C21.44 24 10.88 24 0 24 C0 16.08 0 8.16 0 0 Z " fill="#2361EA" transform="translate(885,102)"/>
<path d="M0 0 C1.134375 0.020625 2.26875 0.04125 3.4375 0.0625 C3.1075 1.0525 2.7775 2.0425 2.4375 3.0625 C0.7875 2.7325 -0.8625 2.4025 -2.5625 2.0625 C-2.5625 17.9025 -2.5625 33.7425 -2.5625 50.0625 C-1.2425 50.3925 0.0775 50.7225 1.4375 51.0625 C-0.21864657 51.44468767 -1.88707024 51.77645102 -3.5625 52.0625 C-5.19004644 50.43495356 -4.68987077 48.62111677 -4.69189453 46.375 C-4.69504669 45.37726563 -4.69819885 44.37953125 -4.70144653 43.3515625 C-4.6994223 42.26617187 -4.69739807 41.18078125 -4.6953125 40.0625 C-4.69626923 38.95648438 -4.69722595 37.85046875 -4.69821167 36.7109375 C-4.69889367 34.36718692 -4.69703804 32.02343447 -4.69287109 29.6796875 C-4.68752314 26.07808212 -4.69281547 22.47660147 -4.69921875 18.875 C-4.69855797 16.60416639 -4.69727682 14.33333286 -4.6953125 12.0625 C-4.69733673 10.97710937 -4.69936096 9.89171875 -4.70144653 8.7734375 C-4.69829437 7.77570313 -4.69514221 6.77796875 -4.69189453 5.75 C-4.69109894 4.86699219 -4.69030334 3.98398438 -4.68948364 3.07421875 C-4.46524926 -0.47817984 -3.69762366 0.06487059 0 0 Z " fill="#86A6F6" transform="translate(122.5625,228.9375)"/>
</svg>
