<svg xmlns="http://www.w3.org/2000/svg" width="577" height="157" viewBox="0 0 2308 628" fill="none">
<g transform="translate(0,628) scale(0.1,-0.1)">
<g fill="#FFFFFF"><path d="M5407 4993 c-4 -3 -7 -28 -7 -54 0 -38 4 -51 20 -59 14 -7 20 -21 20 -44 0 -25 5 -35 20 -39 17 -4 20 -14 20 -56 0 -40 4 -52 20 -61 16 -8 20 -21 20 -60 0 -39 4 -52 20 -60 14 -7 20 -21 20 -44 0 -25 5 -35 20 -39 17 -4 20 -14 20 -56 0 -40 4 -52 20 -61 16 -8 20 -21 20 -60 0 -39 4 -52 20 -60 16 -8 20 -21 20 -60 0 -39 4 -52 20 -60 14 -7 20 -21 20 -44 0 -25 5 -35 20 -39 17 -4 20 -14 20 -56 0 -40 4 -52 20 -61 16 -8 20 -21 20 -60 0 -39 4 -52 20 -60 14 -7 20 -21 20 -44 0 -25 5 -35 20 -39 17 -4 20 -14 20 -56 0 -40 4 -52 20 -61 16 -8 20 -21 20 -60 0 -39 4 -52 20 -60 16 -8 20 -21 20 -60 0 -39 4 -52 20 -60 14 -7 20 -21 20 -44 0 -25 5 -35 20 -39 17 -4 20 -14 20 -56 0 -40 4 -52 20 -61 16 -8 20 -21 20 -60 0 -39 4 -52 20 -60 14 -7 20 -21 20 -44 0 -25 5 -35 20 -39 17 -4 20 -14 20 -56 0 -40 4 -52 20 -61 16 -8 20 -21 20 -60 0 -39 4 -52 20 -60 14 -7 20 -21 20 -44 0 -25 5 -35 20 -39 17 -4 20 -14 20 -56 0 -40 4 -52 20 -61 16 -8 20 -21 20 -60 0 -39 4 -52 20 -60 16 -8 20 -21 20 -60 0 -39 4 -52 20 -60 14 -7 20 -21 20 -44 0 -25 5 -35 19 -39 16 -4 20 -15 23 -58 l3 -54 218 -3 217 -2 0 34 c0 25 6 38 20 46 16 9 20 21 20 61 0 42 3 52 20 56 15 4 20 14 20 39 0 23 6 37 20 44 16 8 20 21 20 60 0 39 4 52 20 60 16 8 20 21 20 60 0 39 4 52 20 60 16 9 20 21 20 61 0 42 3 52 20 56 15 4 20 14 20 39 0 23 6 37 20 44 16 8 20 21 20 60 0 39 4 52 20 60 16 8 20 21 20 60 0 39 4 52 20 60 16 9 20 21 20 61 0 42 3 52 20 56 15 4 20 14 20 39 0 23 6 37 20 44 16 8 20 21 20 60 0 39 4 52 20 60 16 8 20 21 20 60 0 39 4 52 20 60 16 9 20 21 20 61 0 42 3 52 20 56 15 4 20 14 20 39 0 23 6 37 20 44 16 8 20 21 20 60 0 39 4 52 20 60 16 8 20 21 20 60 0 39 4 52 20 60 16 9 20 21 20 61 0 42 3 52 20 56 15 4 20 14 20 39 0 23 6 37 20 44 16 8 20 21 20 60 0 39 4 52 20 60 16 9 20 21 20 61 0 42 3 52 20 56 15 4 20 14 20 39 0 23 6 37 20 44 16 8 20 21 20 60 0 39 4 52 20 60 16 8 20 21 20 60 0 39 4 52 20 60 16 9 20 21 20 61 0 42 3 52 20 56 15 4 20 14 20 39 0 23 6 37 21 44 17 10 20 19 17 63 l-3 52 -195 0 -195 0 -3 -52 c-2 -40 -8 -55 -23 -63 -15 -8 -19 -21 -19 -60 0 -39 -4 -52 -20 -60 -16 -8 -20 -21 -20 -60 0 -39 -4 -52 -20 -60 -16 -8 -20 -21 -20 -60 0 -39 -4 -52 -20 -60 -16 -8 -20 -21 -20 -60 0 -39 -4 -52 -20 -60 -16 -8 -20 -21 -20 -60 0 -39 -4 -52 -20 -60 -16 -9 -20 -21 -20 -61 0 -42 -3 -52 -20 -56 -15 -4 -20 -14 -20 -39 0 -23 -6 -37 -20 -44 -16 -8 -20 -21 -20 -60 0 -39 -4 -52 -20 -60 -16 -8 -20 -21 -20 -60 0 -39 -4 -52 -20 -60 -16 -8 -20 -21 -20 -60 0 -39 -4 -52 -20 -60 -16 -8 -20 -21 -20 -60 0 -39 -4 -52 -20 -60 -16 -8 -20 -21 -20 -60 0 -39 -4 -52 -20 -60 -16 -8 -20 -21 -20 -60 0 -39 -4 -52 -20 -60 -16 -8 -20 -21 -20 -60 0 -39 -4 -52 -20 -60 -16 -8 -20 -21 -20 -60 0 -39 -4 -52 -20 -60 -16 -8 -20 -21 -20 -60 0 -39 -4 -52 -20 -60 -16 -8 -20 -21 -20 -60 0 -39 -4 -52 -20 -60 -16 -8 -20 -21 -20 -60 0 -39 -4 -52 -20 -60 -16 -8 -20 -21 -20 -60 0 -39 -4 -52 -20 -60 -17 -9 -20 -21 -20 -74 0 -55 -3 -66 -29 -95 -34 -38 -51 -34 -51 13 0 25 -5 35 -20 39 -18 5 -20 14 -20 76 0 60 -3 72 -20 81 -16 8 -20 21 -20 60 0 39 -4 52 -20 60 -16 8 -20 21 -20 60 0 39 -4 52 -20 60 -16 8 -20 21 -20 60 0 39 -4 52 -20 60 -16 8 -20 21 -20 60 0 39 -4 52 -20 60 -16 8 -20 21 -20 60 0 39 -4 52 -20 60 -16 8 -20 21 -20 60 0 39 -4 52 -20 60 -16 8 -20 21 -20 60 0 39 -4 52 -20 60 -16 8 -20 21 -20 60 0 39 -4 52 -20 60 -14 7 -20 21 -20 44 0 25 -5 35 -20 39 -17 4 -20 14 -20 56 0 40 -4 52 -20 61 -16 8 -20 21 -20 60 0 39 -4 52 -20 60 -16 8 -20 21 -20 60 0 39 -4 52 -20 60 -16 8 -20 21 -20 60 0 39 -4 52 -20 60 -14 7 -20 21 -20 44 0 25 -5 35 -20 39 -17 4 -20 14 -20 56 0 40 -4 52 -20 61 -16 8 -20 21 -20 60 0 39 -4 52 -20 60 -16 8 -20 21 -20 60 0 39 -4 52 -20 60 -16 8 -20 21 -20 60 0 39 -4 52 -20 60 -14 7 -20 21 -20 44 0 25 -5 35 -20 39 -16 4 -20 14 -20 52 0 38 -5 52 -29 76 l-29 29 -165 0 c-90 0 -167 -3 -170 -7z M14805 4988 c-3 -7 -4 -663 -3 -1458 l3 -1445 175 0 175 0 0 1455 0 1455 -173 3 c-132 2 -174 0 -177 -10z M17845 4988 c-3 -7 -4 -663 -3 -1458 l3 -1445 155 0 155 0 3 170 c1 93 6 173 11 178 12 12 111 -90 111 -114 0 -30 133 -159 164 -159 15 0 30 -8 36 -20 7 -13 21 -20 40 -20 19 0 33 -7 40 -20 8 -16 21 -20 60 -20 39 0 52 -4 60 -20 10 -19 21 -20 160 -20 139 0 150 1 160 20 9 17 21 20 80 20 59 0 71 3 80 20 7 13 21 20 40 20 19 0 33 7 40 20 6 12 21 20 36 20 33 0 284 249 284 282 0 14 16 37 40 58 36 32 40 40 40 83 0 40 3 50 20 54 15 4 20 14 20 39 0 23 6 37 20 44 18 9 20 21 20 100 0 79 2 91 20 100 19 10 20 21 20 240 0 219 -1 230 -20 240 -18 9 -20 21 -20 100 0 79 -2 91 -20 100 -16 8 -20 21 -20 60 0 39 -4 52 -20 60 -14 7 -20 21 -20 44 0 25 -5 35 -20 39 -15 4 -20 14 -20 40 0 26 -5 36 -20 40 -14 3 -20 14 -20 31 0 37 -208 246 -244 246 -15 0 -30 8 -36 20 -7 13 -21 20 -40 20 -19 0 -33 7 -40 20 -7 13 -21 20 -40 20 -19 0 -33 7 -40 20 -10 19 -21 20 -280 20 -259 0 -270 -1 -280 -20 -7 -12 -21 -20 -38 -20 -19 0 -37 -12 -62 -40 -25 -28 -43 -40 -62 -40 -17 0 -31 -8 -38 -20 -6 -11 -17 -20 -25 -20 -10 0 -15 -10 -15 -30 0 -24 -14 -44 -71 -101 -40 -38 -76 -66 -80 -62 -5 5 -10 247 -11 538 l-3 530 -153 3 c-116 2 -154 0 -157 -10z m1035 -1008 c9 -17 21 -20 78 -20 66 0 68 -1 102 -40 22 -25 44 -40 58 -40 31 0 122 -91 122 -122 0 -14 15 -36 40 -58 36 -31 40 -40 40 -82 0 -37 4 -50 20 -58 16 -8 20 -21 20 -60 0 -39 4 -52 20 -60 19 -10 20 -21 20 -260 0 -239 -1 -250 -20 -260 -16 -8 -20 -21 -20 -60 0 -39 -4 -52 -20 -60 -16 -9 -20 -21 -20 -61 0 -42 -3 -52 -20 -56 -14 -4 -20 -14 -20 -34 0 -24 -18 -47 -90 -119 -65 -65 -96 -90 -114 -90 -15 0 -30 -8 -36 -20 -7 -13 -21 -20 -40 -20 -19 0 -33 -7 -40 -20 -10 -19 -21 -20 -180 -20 -159 0 -170 1 -180 20 -7 13 -21 20 -40 20 -19 0 -33 7 -40 20 -6 12 -21 20 -36 20 -38 0 -164 129 -164 168 0 21 -6 31 -20 35 -15 4 -20 14 -20 40 0 26 -5 36 -20 40 -15 4 -20 14 -20 40 0 26 -5 36 -20 40 -18 5 -20 14 -20 96 0 80 -2 92 -20 101 -19 10 -20 21 -20 180 0 159 1 170 20 180 18 9 20 21 20 101 0 82 2 91 20 96 15 4 20 14 20 40 0 26 5 36 20 40 15 4 20 14 20 40 0 26 5 36 20 40 14 4 20 14 20 35 0 37 87 128 122 128 14 0 36 15 58 40 34 39 36 40 102 40 57 0 69 3 78 20 9 18 21 20 100 20 79 0 91 -2 100 -20z M1800 4351 c0 -12 -139 -151 -151 -151 -5 0 -9 -9 -9 -20 0 -11 4 -20 8 -20 5 0 37 -27 70 -60 36 -35 71 -60 83 -60 13 0 51 -30 99 -80 51 -52 86 -80 100 -80 14 0 44 -22 80 -60 36 -38 66 -60 80 -60 14 0 49 -28 100 -80 50 -51 86 -80 100 -80 14 0 50 -29 100 -80 57 -59 85 -80 104 -80 15 0 30 -8 36 -20 7 -13 21 -20 40 -20 19 0 33 7 40 20 6 12 21 20 36 20 19 0 47 21 104 80 50 51 86 80 100 80 14 0 50 29 100 80 51 52 86 80 100 80 14 0 44 22 80 60 37 38 66 60 80 60 14 0 43 22 80 60 35 36 66 60 79 60 13 0 52 31 102 80 45 44 85 80 90 80 5 0 9 9 9 20 0 11 -4 20 -9 20 -12 0 -151 139 -151 151 0 5 -9 9 -20 9 -11 0 -20 -3 -20 -7 0 -20 -99 -113 -119 -113 -15 0 -49 -27 -101 -80 -50 -51 -86 -80 -100 -80 -14 0 -50 -29 -100 -80 -51 -52 -86 -80 -100 -80 -14 0 -44 -22 -80 -60 -35 -37 -66 -60 -79 -60 -12 0 -41 -18 -63 -40 -23 -22 -49 -40 -58 -40 -9 0 -35 18 -58 40 -22 22 -51 40 -62 40 -14 0 -51 30 -100 80 -51 52 -86 80 -100 80 -14 0 -44 22 -80 60 -36 38 -66 60 -80 60 -14 0 -49 28 -100 80 -52 53 -86 80 -101 80 -20 0 -119 93 -119 113 0 4 -9 7 -20 7 -11 0 -20 -4 -20 -9z M8760 4260 c-8 -16 -21 -20 -60 -20 -39 0 -52 -4 -60 -20 -8 -16 -21 -20 -58 -20 -42 0 -51 -4 -82 -40 -21 -24 -44 -40 -58 -40 -30 0 -162 -131 -162 -161 0 -13 -17 -38 -41 -60 -38 -35 -40 -40 -37 -86 l3 -48 52 -3 c40 -2 55 -8 63 -23 8 -15 21 -19 60 -19 39 0 52 -4 60 -20 6 -12 21 -20 36 -20 34 0 121 87 126 126 2 24 8 30 33 32 19 3 43 18 66 43 24 26 44 39 62 39 16 0 30 8 37 20 8 16 21 20 60 20 39 0 52 4 60 20 10 18 21 20 140 20 119 0 130 -2 140 -20 8 -16 21 -20 60 -20 39 0 52 -4 60 -20 6 -12 21 -20 36 -20 37 0 124 -90 124 -128 0 -21 6 -31 20 -35 19 -5 20 -14 20 -132 l0 -126 -50 -49 -49 -50 -105 0 c-95 0 -106 -2 -116 -20 -10 -19 -21 -20 -160 -20 -139 0 -150 -1 -160 -20 -9 -18 -21 -20 -100 -20 -79 0 -91 -2 -100 -20 -9 -17 -21 -20 -80 -20 -59 0 -71 -3 -80 -20 -7 -13 -21 -20 -40 -20 -19 0 -33 -7 -40 -20 -6 -12 -21 -20 -36 -20 -18 0 -53 -29 -134 -110 -107 -107 -110 -111 -110 -154 0 -35 -5 -48 -20 -56 -19 -10 -20 -21 -20 -180 0 -159 1 -170 20 -180 16 -8 20 -21 20 -58 0 -42 4 -51 40 -82 24 -21 40 -44 40 -58 0 -33 131 -162 164 -162 15 0 30 -8 36 -20 7 -13 21 -20 40 -20 19 0 33 -7 40 -20 9 -17 21 -20 80 -20 59 0 71 -3 80 -20 10 -19 21 -20 180 -20 159 0 170 1 180 20 9 17 21 20 80 20 59 0 71 3 80 20 6 12 21 20 36 20 18 0 56 31 145 120 66 66 125 118 130 115 5 -4 9 -54 9 -111 0 -103 1 -106 30 -135 l29 -30 148 3 148 3 3 812 c2 804 2 812 -18 823 -17 9 -20 21 -20 80 0 59 -3 71 -20 80 -12 7 -20 21 -20 38 0 19 -12 37 -40 62 -31 27 -40 42 -40 68 0 21 -5 32 -15 32 -8 0 -19 9 -25 20 -7 12 -21 20 -38 20 -19 0 -37 12 -62 40 -25 28 -43 40 -62 40 -17 0 -31 8 -38 20 -8 16 -21 20 -60 20 -39 0 -52 4 -60 20 -10 19 -21 20 -300 20 -279 0 -290 -1 -300 -20z m754 -1116 c3 -9 6 -106 6 -216 0 -191 -1 -200 -20 -205 -15 -4 -20 -14 -20 -40 0 -26 -5 -36 -20 -40 -14 -4 -20 -14 -20 -35 0 -39 -126 -168 -164 -168 -15 0 -30 -8 -36 -20 -7 -13 -21 -20 -40 -20 -19 0 -33 -7 -40 -20 -10 -19 -21 -20 -220 -20 -199 0 -210 1 -220 20 -7 13 -21 20 -40 20 -19 0 -33 7 -40 20 -6 12 -21 20 -36 20 -36 0 -84 51 -84 88 0 21 -6 31 -20 35 -19 5 -20 14 -20 131 l0 127 90 89 c86 87 91 90 134 90 35 0 48 5 56 20 9 18 21 20 100 20 79 0 91 2 100 20 10 18 21 20 140 20 119 0 130 2 140 20 9 18 21 20 99 20 75 0 91 3 106 20 22 24 60 26 69 4z M10207 4273 c-15 -15 -7 -63 13 -73 16 -8 20 -21 20 -60 0 -39 4 -52 20 -60 14 -7 20 -21 20 -44 0 -25 5 -35 20 -39 17 -4 20 -14 20 -56 0 -40 4 -52 20 -61 14 -7 20 -21 20 -44 0 -25 5 -35 20 -39 17 -4 20 -14 20 -56 0 -40 4 -52 20 -61 16 -8 20 -21 20 -60 0 -39 4 -52 20 -60 14 -7 20 -21 20 -44 0 -25 5 -35 20 -39 17 -4 20 -14 20 -56 0 -40 4 -52 20 -61 16 -8 20 -21 20 -60 0 -39 4 -52 20 -60 14 -7 20 -21 20 -44 0 -25 5 -35 20 -39 17 -4 20 -14 20 -56 0 -40 4 -52 20 -61 14 -7 20 -21 20 -44 0 -25 5 -35 20 -39 17 -4 20 -14 20 -56 0 -40 4 -52 20 -61 16 -8 20 -21 20 -60 0 -39 4 -52 20 -60 14 -7 20 -21 20 -44 0 -25 5 -35 20 -39 17 -4 20 -14 20 -56 0 -40 4 -52 20 -61 16 -8 20 -21 20 -60 0 -39 4 -52 20 -60 14 -7 20 -21 20 -44 0 -25 5 -35 20 -39 17 -4 20 -14 20 -56 0 -40 4 -52 20 -61 18 -10 20 -21 20 -120 0 -99 -2 -110 -20 -120 -16 -9 -20 -21 -20 -61 0 -42 -3 -52 -20 -56 -15 -4 -20 -14 -20 -40 0 -26 -5 -36 -20 -40 -14 -4 -20 -14 -20 -35 0 -21 -13 -42 -50 -78 -44 -45 -53 -50 -94 -50 -35 0 -48 -5 -56 -20 -8 -16 -21 -20 -60 -20 -39 0 -52 4 -60 20 -9 16 -21 20 -65 20 l-55 0 0 -35 c0 -24 -6 -37 -20 -45 -17 -9 -20 -21 -20 -80 0 -60 -3 -71 -21 -80 -15 -9 -19 -19 -17 -43 l3 -32 232 -3 c224 -2 232 -2 243 18 8 15 21 20 56 20 43 0 47 3 154 110 75 75 110 117 110 132 0 14 16 37 40 58 36 32 40 40 40 83 0 40 3 50 20 54 15 4 20 14 20 39 0 23 6 37 20 44 16 9 20 21 20 61 0 42 3 52 20 56 15 4 20 14 20 39 0 23 6 37 20 44 16 8 20 21 20 60 0 39 4 52 20 60 16 9 20 21 20 61 0 42 3 52 20 56 15 4 20 14 20 39 0 23 6 37 20 44 16 8 20 21 20 60 0 39 4 52 20 60 16 9 20 21 20 61 0 42 3 52 20 56 15 4 20 14 20 39 0 23 6 37 20 44 16 9 20 21 20 61 0 42 3 52 20 56 15 4 20 14 20 39 0 23 6 37 20 44 16 8 20 21 20 60 0 39 4 52 20 60 16 9 20 21 20 61 0 42 3 52 20 56 15 4 20 14 20 39 0 23 6 37 20 44 16 9 20 21 20 61 0 42 3 52 20 56 15 4 20 14 20 39 0 23 6 37 20 44 16 8 20 21 20 60 0 39 4 52 20 60 16 9 20 21 20 61 0 42 3 52 20 56 15 4 20 14 20 39 0 23 6 37 20 44 16 8 20 21 20 60 0 39 4 52 20 60 16 9 20 21 20 61 0 42 3 52 20 56 15 4 20 14 20 39 0 23 6 37 20 44 16 8 20 21 20 60 0 39 4 51 21 60 17 10 20 19 17 63 l-3 52 -177 3 -178 2 0 -34 c0 -25 -6 -38 -20 -46 -16 -8 -20 -21 -20 -60 0 -39 -4 -52 -20 -60 -16 -9 -20 -21 -20 -61 0 -42 -3 -52 -20 -56 -15 -4 -20 -14 -20 -39 0 -23 -6 -37 -20 -44 -16 -8 -20 -21 -20 -60 0 -39 -4 -52 -20 -60 -16 -8 -20 -21 -20 -60 0 -39 -4 -52 -20 -60 -16 -9 -20 -21 -20 -61 0 -42 -3 -52 -20 -56 -15 -4 -20 -14 -20 -39 0 -23 -6 -37 -20 -44 -16 -8 -20 -21 -20 -60 0 -39 -4 -52 -20 -60 -16 -8 -20 -21 -20 -60 0 -39 -4 -52 -20 -60 -16 -9 -20 -21 -20 -61 0 -42 -3 -52 -20 -56 -15 -4 -20 -14 -20 -39 0 -23 -6 -37 -20 -44 -17 -9 -20 -21 -20 -80 0 -59 -3 -71 -20 -80 -16 -8 -20 -21 -20 -60 0 -39 -4 -52 -20 -60 -16 -8 -20 -21 -20 -59 0 -38 -4 -52 -21 -63 -18 -12 -22 -24 -23 -83 -1 -55 -4 -70 -16 -70 -9 0 -16 11 -18 30 -2 17 -12 38 -23 48 -15 14 -19 32 -19 82 0 54 -3 66 -20 75 -16 8 -20 21 -20 60 0 39 -4 52 -20 60 -16 8 -20 21 -20 60 0 39 -4 52 -20 60 -16 8 -20 21 -20 60 0 39 -4 52 -20 60 -16 8 -20 21 -20 60 0 39 -4 52 -20 60 -14 7 -20 21 -20 44 0 25 -5 35 -20 39 -17 4 -20 14 -20 56 0 40 -4 52 -20 61 -16 8 -20 21 -20 60 0 39 -4 52 -20 60 -16 8 -20 21 -20 60 0 39 -4 52 -20 60 -14 7 -20 21 -20 44 0 25 -5 35 -20 39 -17 4 -20 14 -20 56 0 40 -4 52 -20 61 -16 8 -20 21 -20 60 0 39 -4 52 -20 60 -16 8 -20 21 -20 60 0 39 -4 52 -20 60 -16 8 -20 21 -20 60 0 39 -4 52 -20 60 -14 8 -20 21 -20 45 0 24 -5 35 -15 35 -8 0 -19 9 -25 20 -10 19 -21 20 -179 20 -92 0 -171 -3 -174 -7z M12567 4274 c-4 -4 -7 -380 -7 -835 0 -818 0 -828 20 -839 16 -8 20 -21 20 -60 0 -39 4 -52 20 -60 14 -7 20 -21 20 -44 0 -25 5 -35 20 -39 14 -3 20 -14 20 -31 0 -37 168 -206 204 -206 15 0 30 -8 36 -20 8 -16 21 -20 60 -20 39 0 52 -4 60 -20 10 -19 21 -20 240 -20 219 0 230 1 240 20 7 13 21 20 40 20 19 0 33 7 40 20 7 13 21 20 40 20 19 0 33 7 40 20 6 12 21 20 36 20 32 0 124 90 124 121 0 13 16 35 39 56 28 24 41 43 43 66 2 20 8 32 18 32 13 0 16 -31 20 -195 l5 -195 155 0 155 0 0 1095 0 1095 -157 3 -158 3 0 -35 c0 -25 -6 -38 -20 -46 -20 -11 -20 -21 -20 -741 0 -722 0 -731 -20 -736 -15 -4 -20 -14 -20 -40 0 -26 -5 -36 -20 -40 -14 -4 -20 -14 -20 -35 0 -38 -87 -128 -124 -128 -15 0 -30 -8 -36 -20 -7 -13 -21 -20 -40 -20 -19 0 -33 -7 -40 -20 -9 -17 -21 -20 -80 -20 -59 0 -71 -3 -80 -20 -8 -16 -21 -20 -60 -20 -39 0 -52 4 -60 20 -9 17 -21 20 -80 20 -59 0 -71 3 -80 20 -6 12 -21 20 -36 20 -37 0 -124 90 -124 128 0 21 -6 31 -20 35 -15 4 -20 14 -20 40 0 26 -5 36 -20 40 -18 5 -20 14 -20 76 0 60 -3 72 -20 81 -20 10 -20 23 -22 723 l-3 712 -151 3 c-82 1 -153 -1 -157 -4z M16160 4260 c-8 -16 -21 -20 -60 -20 -39 0 -52 -4 -60 -20 -7 -13 -21 -20 -40 -20 -19 0 -33 -7 -40 -20 -6 -12 -21 -20 -36 -20 -35 0 -244 -209 -244 -244 0 -15 -8 -30 -21 -36 -17 -10 -20 -19 -17 -63 l3 -52 52 -3 c40 -2 55 -8 63 -23 8 -15 21 -19 60 -19 39 0 52 -4 60 -20 7 -13 21 -20 40 -20 19 0 33 7 40 20 6 11 17 20 25 20 10 0 15 10 15 30 0 39 86 130 122 130 14 0 36 15 58 40 31 36 40 40 82 40 37 0 50 4 58 20 10 19 21 20 160 20 139 0 150 -1 160 -20 8 -16 21 -20 57 -20 41 0 50 -4 82 -39 23 -25 47 -40 66 -43 27 -3 30 -7 33 -39 2 -27 9 -38 23 -42 14 -4 19 -14 19 -40 0 -26 5 -36 20 -40 18 -5 20 -14 20 -112 0 -104 -1 -107 -29 -136 -17 -17 -40 -29 -55 -29 -15 0 -30 -8 -36 -20 -9 -18 -21 -20 -100 -20 -79 0 -91 -2 -100 -20 -10 -19 -21 -20 -160 -20 -139 0 -150 -1 -160 -20 -10 -18 -21 -20 -120 -20 -99 0 -110 -2 -120 -20 -8 -16 -21 -20 -60 -20 -39 0 -52 -4 -60 -20 -7 -13 -21 -20 -40 -20 -19 0 -33 -7 -40 -20 -7 -13 -21 -20 -40 -20 -19 0 -33 -7 -40 -20 -6 -12 -21 -20 -36 -20 -35 0 -124 -90 -124 -125 0 -18 -6 -29 -20 -32 -15 -4 -20 -14 -20 -39 0 -23 -6 -37 -20 -44 -19 -10 -20 -21 -20 -220 0 -199 1 -210 20 -220 14 -7 20 -21 20 -44 0 -25 5 -35 20 -39 14 -3 20 -14 20 -31 0 -37 168 -206 204 -206 15 0 30 -8 36 -20 7 -13 21 -20 40 -20 19 0 33 -7 40 -20 8 -16 21 -20 60 -20 39 0 52 -4 60 -20 10 -19 21 -20 200 -20 179 0 190 1 200 20 8 16 21 20 60 20 39 0 52 4 60 20 7 13 21 20 40 20 19 0 33 7 40 20 6 12 21 20 35 20 36 0 202 164 207 205 2 19 9 30 18 30 12 0 16 -26 20 -155 l5 -155 148 -3 148 -3 29 30 30 29 0 726 c0 715 0 725 -20 736 -18 10 -20 21 -20 120 0 99 -2 110 -20 120 -14 7 -20 21 -20 44 0 25 -5 35 -20 39 -14 3 -20 14 -20 31 0 37 -208 246 -244 246 -15 0 -30 8 -36 20 -8 16 -21 20 -60 20 -39 0 -52 4 -60 20 -10 19 -21 20 -320 20 -299 0 -310 -1 -320 -20z m794 -1116 c3 -9 6 -96 6 -194 0 -169 -1 -180 -20 -190 -16 -8 -20 -21 -20 -58 0 -42 -4 -51 -40 -82 -25 -22 -40 -44 -40 -58 0 -30 -52 -82 -82 -82 -14 0 -36 -15 -58 -40 -31 -36 -40 -40 -82 -40 -37 0 -50 -4 -58 -20 -10 -19 -21 -20 -200 -20 -179 0 -190 1 -200 20 -8 15 -21 20 -56 20 -42 0 -49 4 -114 70 -66 65 -70 72 -70 114 0 35 -5 48 -20 56 -16 8 -20 21 -20 60 0 39 4 52 20 60 15 8 20 21 20 56 0 41 5 50 50 94 33 34 57 50 74 50 15 0 30 8 36 20 8 16 21 20 60 20 39 0 52 4 60 20 9 18 21 20 100 20 79 0 91 2 100 20 10 18 21 20 140 20 119 0 130 2 140 20 9 18 21 20 99 20 75 0 91 3 106 20 22 24 60 26 69 4z M20640 4260 c-7 -13 -21 -20 -40 -20 -19 0 -33 -7 -40 -20 -7 -13 -21 -20 -40 -20 -19 0 -33 -7 -40 -20 -6 -12 -21 -20 -36 -20 -35 0 -244 -209 -244 -244 0 -15 -8 -30 -20 -36 -19 -10 -20 -21 -20 -220 0 -199 1 -210 20 -220 12 -6 20 -21 20 -36 0 -35 169 -204 204 -204 15 0 30 -8 36 -20 7 -13 21 -20 40 -20 19 0 33 -7 40 -20 8 -16 21 -20 60 -20 39 0 52 -4 60 -20 8 -16 21 -20 60 -20 39 0 52 -4 60 -20 9 -17 21 -20 80 -20 59 0 71 -3 80 -20 9 -18 21 -20 100 -20 79 0 91 -2 100 -20 8 -15 21 -20 56 -20 43 0 48 -3 134 -90 l90 -89 0 -101 0 -101 -90 -89 c-86 -87 -91 -90 -134 -90 -35 0 -48 -5 -56 -20 -10 -19 -21 -20 -200 -20 -179 0 -190 1 -200 20 -8 15 -21 20 -56 20 -43 0 -48 3 -134 90 -74 73 -90 95 -90 120 0 20 -5 30 -15 30 -8 0 -19 9 -25 20 -9 17 -21 20 -80 20 -59 0 -71 -3 -80 -20 -8 -16 -23 -20 -83 -22 l-72 -3 -3 -52 c-3 -44 0 -53 17 -63 15 -7 21 -21 21 -44 0 -25 5 -35 20 -39 14 -3 20 -14 20 -31 0 -37 208 -246 244 -246 15 0 30 -8 36 -20 8 -16 21 -20 60 -20 39 0 52 -4 60 -20 9 -17 21 -20 80 -20 59 0 71 -3 80 -20 10 -19 21 -20 200 -20 179 0 190 1 200 20 9 17 21 20 80 20 59 0 71 3 80 20 8 16 21 20 58 20 42 0 51 4 82 40 21 24 44 40 58 40 34 0 202 171 202 206 0 17 6 28 20 31 15 4 20 14 20 39 0 23 6 37 20 44 19 10 20 21 20 180 0 159 -1 170 -20 180 -15 8 -20 21 -20 56 0 43 -3 48 -90 134 -65 65 -96 90 -114 90 -15 0 -30 8 -36 20 -7 13 -21 20 -40 20 -19 0 -33 7 -40 20 -7 13 -21 20 -40 20 -19 0 -33 7 -40 20 -9 17 -21 20 -80 20 -59 0 -71 3 -80 20 -9 17 -21 20 -80 20 -59 0 -71 3 -80 20 -9 17 -21 20 -80 20 -59 0 -71 3 -80 20 -8 16 -21 20 -60 20 -39 0 -52 4 -60 20 -7 13 -21 20 -40 20 -19 0 -33 7 -40 20 -6 12 -21 20 -36 20 -15 0 -38 12 -55 29 -24 25 -29 38 -29 80 0 41 -4 51 -20 56 -14 4 -20 15 -20 35 0 20 6 31 20 35 16 5 20 15 20 56 0 47 3 53 50 99 33 34 57 50 74 50 15 0 30 8 36 20 7 13 21 20 40 20 19 0 33 7 40 20 10 19 21 20 180 20 159 0 170 -1 180 -20 8 -15 21 -20 56 -20 42 0 49 -4 114 -70 56 -55 70 -75 70 -100 0 -20 5 -30 15 -30 8 0 19 -9 25 -20 9 -18 21 -20 100 -20 78 0 91 2 100 19 8 15 23 21 63 23 l52 3 3 48 c3 46 1 51 -37 86 -24 22 -41 47 -41 60 0 32 -212 241 -244 241 -15 0 -30 8 -36 20 -8 16 -21 20 -60 20 -39 0 -52 4 -60 20 -10 19 -21 20 -300 20 -279 0 -290 -1 -300 -20z M1367 3713 c-4 -3 -7 -18 -7 -32 0 -18 -13 -37 -40 -61 -35 -31 -40 -40 -40 -78 0 -35 6 -49 29 -73 16 -16 39 -29 51 -29 14 0 44 -23 80 -60 38 -40 66 -60 81 -60 15 0 37 -15 59 -40 22 -25 44 -40 59 -40 15 0 43 -20 81 -60 37 -38 66 -60 80 -60 14 0 43 -22 80 -60 37 -38 66 -60 80 -60 14 0 43 -22 80 -60 38 -40 66 -60 81 -60 15 0 37 -15 59 -40 22 -25 44 -40 59 -40 15 0 43 -20 81 -60 37 -38 66 -60 80 -60 14 0 43 -22 80 -60 41 -43 65 -60 84 -60 15 0 30 -8 36 -20 7 -13 21 -20 40 -20 19 0 33 7 40 20 6 12 21 20 36 20 19 0 43 17 84 60 37 38 66 60 80 60 14 0 43 22 80 60 38 40 66 60 81 60 15 0 37 15 59 40 22 25 44 40 59 40 15 0 43 20 81 60 37 38 66 60 80 60 14 0 43 22 80 60 38 40 66 60 81 60 15 0 37 15 59 40 22 25 44 40 59 40 15 0 43 20 81 60 37 38 66 60 80 60 14 0 43 22 80 60 36 37 66 60 80 60 12 0 35 13 51 29 23 23 29 38 29 72 0 36 -5 47 -39 78 -25 23 -40 47 -43 66 -2 25 -8 31 -31 33 -23 3 -36 -5 -66 -37 -23 -25 -47 -41 -61 -41 -14 0 -43 -21 -80 -60 -37 -38 -66 -60 -80 -60 -14 0 -43 -22 -80 -60 -38 -40 -66 -60 -81 -60 -15 0 -37 -15 -59 -40 -22 -25 -44 -40 -59 -40 -15 0 -43 -20 -81 -60 -37 -38 -66 -60 -80 -60 -14 0 -43 -22 -80 -60 -38 -40 -66 -60 -81 -60 -15 0 -37 -15 -59 -40 -22 -25 -44 -40 -59 -40 -15 0 -43 -20 -81 -60 -40 -41 -65 -60 -82 -60 -14 0 -33 -9 -43 -20 -10 -11 -26 -20 -35 -20 -9 0 -25 9 -35 20 -10 11 -29 20 -43 20 -17 0 -42 19 -82 60 -37 38 -66 60 -80 60 -14 0 -43 22 -80 60 -38 40 -66 60 -81 60 -15 0 -37 15 -59 40 -22 25 -44 40 -59 40 -15 0 -43 20 -81 60 -37 38 -66 60 -80 60 -14 0 -43 22 -80 60 -38 40 -66 60 -81 60 -15 0 -37 15 -59 40 -22 25 -44 40 -59 40 -15 0 -43 20 -81 60 -38 40 -66 60 -81 60 -15 0 -37 15 -59 40 -33 38 -74 52 -93 33z"/></g>
<g fill="#4A83E8"><path d="M2200 4951 c0 -12 -139 -151 -151 -151 -5 0 -9 -9 -9 -20 0 -11 4 -20 9 -20 5 0 64 -54 130 -120 77 -76 129 -120 142 -120 13 0 51 -31 99 -80 53 -55 86 -80 102 -80 14 0 36 -15 58 -40 31 -35 40 -40 78 -40 42 0 47 4 162 120 76 77 126 120 140 120 13 0 61 40 130 110 104 103 110 112 110 150 0 36 -7 47 -60 102 -33 33 -60 65 -60 70 0 4 -9 8 -20 8 -11 0 -20 -4 -20 -8 0 -4 -31 -40 -69 -80 -45 -47 -76 -72 -91 -72 -14 0 -49 -28 -100 -80 l-78 -80 -62 0 -61 0 -99 100 c-66 67 -106 100 -121 100 -20 0 -119 93 -119 113 0 4 -9 7 -20 7 -11 0 -20 -4 -20 -9z"/>
</g>
</g>
</svg>
